<?xml version="1.0" encoding="utf-8"?><!-- Generator: Adobe Illustrator 17.0.0, SVG Export Plug-In . SVG Version: 6.00 Build 0)  --><!DOCTYPE svg PUBLIC "-//W3C//DTD SVG 1.1//EN" "http://www.w3.org/Graphics/SVG/1.1/DTD/svg11.dtd"><svg xmlns="http://www.w3.org/2000/svg" xmlns:xlink="http://www.w3.org/1999/xlink" viewBox="0 0 50 50" width="50px" height="50px"><path d="M18.517,34.378l-3.221-6.089c-0.122-0.226-0.248-0.644-0.378-1.252h-0.052c-0.061,0.287-0.205,0.722-0.431,1.304l-3.233,6.037h-5.02l5.959-9.349l-5.45-9.35h5.125l2.673,5.607c0.209,0.443,0.396,0.969,0.561,1.578H15.1c0.104-0.365,0.3-0.909,0.587-1.63l2.973-5.555h4.694l-5.607,9.271l5.764,9.427H18.517z"/><path fill="none" stroke="#000000" stroke-width="2" stroke-linecap="round" stroke-linejoin="round" stroke-miterlimit="10" d="M29,43h18c0.552,0,1-0.448,1-1s0-33.448,0-34s-0.448-1-1-1H29"/><line fill="none" stroke="#000000" stroke-width="2" stroke-linejoin="round" stroke-miterlimit="10" x1="29" y1="36" x2="34" y2="36"/><line fill="none" stroke="#000000" stroke-width="2" stroke-linejoin="round" stroke-miterlimit="10" x1="36" y1="36" x2="44" y2="36"/><line fill="none" stroke="#000000" stroke-width="2" stroke-linejoin="round" stroke-miterlimit="10" x1="29" y1="28" x2="34" y2="28"/><line fill="none" stroke="#000000" stroke-width="2" stroke-linejoin="round" stroke-miterlimit="10" x1="36" y1="28" x2="44" y2="28"/><line fill="none" stroke="#000000" stroke-width="2" stroke-linejoin="round" stroke-miterlimit="10" x1="29" y1="21" x2="34" y2="21"/><line fill="none" stroke="#000000" stroke-width="2" stroke-linejoin="round" stroke-miterlimit="10" x1="36" y1="21" x2="44" y2="21"/><line fill="none" stroke="#000000" stroke-width="2" stroke-linejoin="round" stroke-miterlimit="10" x1="29" y1="14" x2="34" y2="14"/><line fill="none" stroke="#000000" stroke-width="2" stroke-linejoin="round" stroke-miterlimit="10" x1="36" y1="14" x2="44" y2="14"/><g><path fill="none" stroke="#000000" stroke-width="2" stroke-linecap="round" stroke-linejoin="round" stroke-miterlimit="10" d="M1,6.333v37.334L29,49V1L1,6.333z"/></g></svg>