<svg width="104" height="104" viewBox="0 0 104 104" fill="none" xmlns="http://www.w3.org/2000/svg">
<path d="M1.60005 51.2076C2.0203 51.5228 2.49851 51.7521 3.00738 51.8824C3.51625 52.0128 4.04581 52.0416 4.56584 51.9673C5.08586 51.8931 5.58616 51.7171 6.03818 51.4495C6.49019 51.1819 6.88506 50.8279 7.20024 50.4078C9.62215 47.1791 12.7626 44.5586 16.373 42.7538C19.9834 40.9489 23.9644 40.0093 28.0009 40.0093C32.0374 40.0093 36.0185 40.9489 39.6289 42.7538C43.2392 44.5586 46.3797 47.1791 48.8016 50.4078C49.4389 51.2556 50.3869 51.8156 51.4371 51.9646C52.4873 52.1137 53.5537 51.8396 54.4018 51.2026C54.7042 50.9778 54.972 50.7101 55.1968 50.4078C57.6188 47.1791 60.7592 44.5586 64.3696 42.7538C67.98 40.9489 71.961 40.0093 75.9975 40.0093C80.0341 40.0093 84.0151 40.9489 87.6255 42.7538C91.2358 44.5586 94.3763 47.1791 96.7982 50.4078C97.4354 51.2563 98.3837 51.8171 99.4344 51.9666C100.485 52.1161 101.552 51.8422 102.401 51.2051C103.25 50.5681 103.81 49.62 103.96 48.5694C104.11 47.5189 103.836 46.452 103.198 45.6035C99.6577 40.8575 94.936 37.1208 89.503 34.765C92.4815 32.0461 94.5683 28.4904 95.4895 24.5645C96.4107 20.6386 96.1233 16.526 94.6649 12.7663C93.2065 9.00668 90.6454 5.77571 87.3176 3.49742C83.9897 1.21914 80.0508 0 76.0175 0C71.9843 0 68.0454 1.21914 64.7175 3.49742C61.3897 5.77571 58.8286 9.00668 57.3702 12.7663C55.9118 16.526 55.6244 20.6386 56.5456 24.5645C57.4668 28.4904 59.5536 32.0461 62.5321 34.765C58.6092 36.461 55.0455 38.889 52.0317 41.919C49.018 38.889 45.4543 36.461 41.5314 34.765C44.5099 32.0461 46.5967 28.4904 47.5179 24.5645C48.4391 20.6386 48.1517 16.526 46.6933 12.7663C45.2349 9.00668 42.6738 5.77571 39.3459 3.49742C36.0181 1.21914 32.0791 0 28.0459 0C24.0127 0 20.0737 1.21914 16.7459 3.49742C13.4181 5.77571 10.857 9.00668 9.39858 12.7663C7.94021 16.526 7.65276 20.6386 8.57395 24.5645C9.49515 28.4904 11.5819 32.0461 14.5605 34.765C9.10356 37.1132 4.35865 40.8522 0.800027 45.6085C0.484844 46.0286 0.25552 46.5067 0.125149 47.0155C-0.00522145 47.5243 -0.0340857 48.0538 0.0402036 48.5737C0.114493 49.0936 0.290482 49.5939 0.558121 50.0458C0.825761 50.4977 1.17981 50.8925 1.60005 51.2076ZM76.0025 8.0139C78.376 8.0139 80.6962 8.71759 82.6696 10.036C84.6431 11.3544 86.1812 13.2282 87.0895 15.4206C87.9978 17.613 88.2354 20.0255 87.7724 22.3529C87.3093 24.6803 86.1664 26.8182 84.4881 28.4962C82.8098 30.1742 80.6716 31.3169 78.3437 31.7799C76.0159 32.2428 73.603 32.0052 71.4102 31.0971C69.2174 30.189 67.3432 28.6511 66.0246 26.678C64.706 24.7049 64.0021 22.3852 64.0021 20.0122C64.0021 16.83 65.2665 13.7782 67.517 11.5281C69.7675 9.278 72.8198 8.0139 76.0025 8.0139ZM28.0009 8.0139C30.3744 8.0139 32.6945 8.71759 34.668 10.036C36.6415 11.3544 38.1796 13.2282 39.0879 15.4206C39.9961 17.613 40.2338 20.0255 39.7708 22.3529C39.3077 24.6803 38.1648 26.8182 36.4865 28.4962C34.8082 30.1742 32.67 31.3169 30.3421 31.7799C28.0142 32.2428 25.6014 32.0052 23.4086 31.0971C21.2158 30.189 19.3416 28.6511 18.023 26.678C16.7043 24.7049 16.0005 22.3852 16.0005 20.0122C16.0005 16.83 17.2649 13.7782 19.5154 11.5281C21.7659 9.278 24.8182 8.0139 28.0009 8.0139ZM89.503 86.7575C92.4815 84.0386 94.5683 80.4829 95.4895 76.557C96.4107 72.6311 96.1233 68.5184 94.6649 64.7588C93.2065 60.9991 90.6454 57.7682 87.3176 55.4899C83.9897 53.2116 80.0508 51.9925 76.0175 51.9925C71.9843 51.9925 68.0454 53.2116 64.7175 55.4899C61.3897 57.7682 58.8286 60.9991 57.3702 64.7588C55.9118 68.5184 55.6244 72.6311 56.5456 76.557C57.4668 80.4829 59.5536 84.0386 62.5321 86.7575C58.6092 88.4535 55.0455 90.8815 52.0317 93.9115C49.018 90.8815 45.4543 88.4535 41.5314 86.7575C44.5099 84.0386 46.5967 80.4829 47.5179 76.557C48.4391 72.6311 48.1517 68.5184 46.6933 64.7588C45.2349 60.9991 42.6738 57.7682 39.3459 55.4899C36.0181 53.2116 32.0791 51.9925 28.0459 51.9925C24.0127 51.9925 20.0737 53.2116 16.7459 55.4899C13.4181 57.7682 10.857 60.9991 9.39858 64.7588C7.94021 68.5184 7.65276 72.6311 8.57395 76.557C9.49515 80.4829 11.5819 84.0386 14.5605 86.7575C9.10356 89.1056 4.35865 92.8447 0.800027 97.6009C0.484844 98.0211 0.25552 98.4992 0.125149 99.008C-0.00522145 99.5168 -0.0340857 100.046 0.0402036 100.566C0.114493 101.086 0.290482 101.586 0.558121 102.038C0.825761 102.49 1.17981 102.885 1.60005 103.2C2.0203 103.515 2.49851 103.745 3.00738 103.875C3.51625 104.005 4.04581 104.034 4.56584 103.96C5.08586 103.886 5.58616 103.71 6.03818 103.442C6.49019 103.174 6.88506 102.82 7.20024 102.4C9.62215 99.1716 12.7626 96.5511 16.373 94.7462C19.9834 92.9414 23.9644 92.0017 28.0009 92.0017C32.0374 92.0017 36.0185 92.9414 39.6289 94.7462C43.2392 96.5511 46.3797 99.1716 48.8016 102.4C49.4389 103.248 50.3869 103.808 51.4371 103.957C52.4873 104.106 53.5537 103.832 54.4018 103.195C54.7042 102.97 54.972 102.703 55.1968 102.4C57.6188 99.1716 60.7592 96.5511 64.3696 94.7462C67.98 92.9414 71.961 92.0017 75.9975 92.0017C80.0341 92.0017 84.0151 92.9414 87.6255 94.7462C91.2358 96.5511 94.3763 99.1716 96.7982 102.4C97.4354 103.249 98.3837 103.81 99.4344 103.959C100.485 104.109 101.552 103.835 102.401 103.198C103.25 102.561 103.81 101.612 103.96 100.562C104.11 99.5114 103.836 98.4445 103.198 97.5959C99.6577 92.8499 94.936 89.1133 89.503 86.7575ZM28.0009 60.0064C30.3744 60.0064 32.6945 60.7101 34.668 62.0284C36.6415 63.3468 38.1796 65.2207 39.0879 67.4131C39.9961 69.6055 40.2338 72.0179 39.7708 74.3454C39.3077 76.6728 38.1648 78.8107 36.4865 80.4887C34.8082 82.1667 32.67 83.3094 30.3421 83.7723C28.0142 84.2353 25.6014 83.9977 23.4086 83.0896C21.2158 82.1815 19.3416 80.6436 18.023 78.6705C16.7043 76.6974 16.0005 74.3777 16.0005 72.0046C16.0005 68.8225 17.2649 65.7707 19.5154 63.5206C21.7659 61.2705 24.8182 60.0064 28.0009 60.0064ZM76.0025 60.0064C78.376 60.0064 80.6962 60.7101 82.6696 62.0284C84.6431 63.3468 86.1812 65.2207 87.0895 67.4131C87.9978 69.6055 88.2354 72.0179 87.7724 74.3454C87.3093 76.6728 86.1664 78.8107 84.4881 80.4887C82.8098 82.1667 80.6716 83.3094 78.3437 83.7723C76.0159 84.2353 73.603 83.9977 71.4102 83.0896C69.2174 82.1815 67.3432 80.6436 66.0246 78.6705C64.706 76.6974 64.0021 74.3777 64.0021 72.0046C64.0021 68.8225 65.2665 65.7707 67.517 63.5206C69.7675 61.2705 72.8198 60.0064 76.0025 60.0064Z" fill="black"/>
</svg>
