<?xml version="1.0" encoding="iso-8859-1"?>
<!-- Generator: Adobe Illustrator 24.0.0, SVG Export Plug-In . SVG Version: 6.00 Build 0)  -->
<svg version="1.1" id="Layer_1" xmlns="http://www.w3.org/2000/svg" xmlns:xlink="http://www.w3.org/1999/xlink" x="0px" y="0px"
	 viewBox="0 0 50 50" style="enable-background:new 0 0 50 50;" xml:space="preserve">
<path d="M41,7H8c-3.31,0-6,2.69-6,6v20c0,2.97,2.16,5.44,5,5.91v-2.04C5.27,36.43,4,34.86,4,33V13c0-2.21,1.79-4,4-4h33
	c2.21,0,4,1.79,4,4v20c0,1.86-1.27,3.43-3,3.87v2.04c2.84-0.47,5-2.94,5-5.91V13C47,9.69,44.31,7,41,7z"/>
<path d="M20.5,44L20.5,44c-1.381,0-2.5-1.119-2.5-2.5v-18c0-1.381,1.119-2.5,2.5-2.5l0,0c1.381,0,2.5,1.119,2.5,2.5v18
	C23,42.881,21.881,44,20.5,44z"/>
<path d="M28.5,44L28.5,44c-1.381,0-2.5-1.119-2.5-2.5v-14c0-1.381,1.119-2.5,2.5-2.5l0,0c1.381,0,2.5,1.119,2.5,2.5v14
	C31,42.881,29.881,44,28.5,44z"/>
<path d="M12.5,44L12.5,44c-1.381,0-2.5-1.119-2.5-2.5v-9c0-1.381,1.119-2.5,2.5-2.5l0,0c1.381,0,2.5,1.119,2.5,2.5v9
	C15,42.881,13.881,44,12.5,44z"/>
<path d="M36.5,44L36.5,44c-1.381,0-2.5-1.119-2.5-2.5v-24c0-1.381,1.119-2.5,2.5-2.5l0,0c1.381,0,2.5,1.119,2.5,2.5v24
	C39,42.881,37.881,44,36.5,44z"/>
</svg>