<svg width="126" height="109" viewBox="0 0 126 109" fill="none" xmlns="http://www.w3.org/2000/svg">
<line x1="2" y1="17" x2="2" y2="88" stroke="black" stroke-width="4"/>
<line x1="95" y1="17" x2="95" y2="88" stroke="black" stroke-width="4"/>
<path d="M95 17C95 18.5146 94.129 20.2403 91.9125 22.0772C89.7084 23.9038 86.3988 25.6382 82.1331 27.1334C73.6201 30.1173 61.7291 32 48.5 32C35.2709 32 23.3799 30.1173 14.8669 27.1334C10.6012 25.6382 7.29164 23.9038 5.08753 22.0772C2.87097 20.2403 2 18.5146 2 17C2 15.4854 2.87097 13.7597 5.08753 11.9228C7.29164 10.0962 10.6012 8.36179 14.8669 6.8666C23.3799 3.88266 35.2709 2 48.5 2C61.7291 2 73.6201 3.88266 82.1331 6.8666C86.3988 8.36179 89.7084 10.0962 91.9125 11.9228C94.129 13.7597 95 15.4854 95 17Z" fill="white" stroke="black" stroke-width="4"/>
<path d="M95 88C95 96.8366 74.1812 104 48.5 104C22.8188 104 2 96.8366 2 88" stroke="black" stroke-width="4"/>
<path d="M95 65C95 73.8366 74.1812 81 48.5 81C22.8188 81 2 73.8366 2 65" stroke="black" stroke-width="4"/>
<path d="M95 40C95 49.3888 74.1812 57 48.5 57C22.8188 57 2 49.3888 2 40" stroke="black" stroke-width="4"/>
<rect x="61" y="66" width="63" height="41" rx="8" fill="white" stroke="black" stroke-width="4"/>
<path d="M81.448 92.36V89.14C81.448 88.8973 81.392 88.7293 81.28 88.636C81.168 88.524 80.972 88.468 80.692 88.468H78.228C76.0253 88.468 74.924 87.4227 74.924 85.332V81.272C74.924 79.2187 76.1 78.192 78.452 78.192H81.868C84.22 78.192 85.396 79.2187 85.396 81.272V83.596H81.392V81.832C81.392 81.3653 81.14 81.132 80.636 81.132H79.684C79.18 81.132 78.928 81.3653 78.928 81.832V84.968C78.928 85.2107 78.984 85.388 79.096 85.5C79.208 85.5933 79.404 85.64 79.684 85.64H82.092C83.2867 85.64 84.1453 85.9013 84.668 86.424C85.1907 86.928 85.452 87.684 85.452 88.692V92.892C85.452 94.964 84.276 96 81.924 96H78.536C76.1653 96 74.98 94.964 74.98 92.892V90.596H78.984V92.36C78.984 92.8267 79.236 93.06 79.74 93.06H80.692C81.196 93.06 81.448 92.8267 81.448 92.36ZM91.0907 96C88.7201 96 87.5347 94.964 87.5347 92.892V81.272C87.5347 79.2187 88.7201 78.192 91.0907 78.192H94.8427C97.1947 78.192 98.3707 79.2187 98.3707 81.272V92.892C98.3707 94.124 97.9694 94.992 97.1667 95.496L99.4907 98.156H95.0387L93.1907 96H91.0907ZM91.5387 81.832V92.36C91.5387 92.8267 91.7907 93.06 92.2947 93.06H93.6387C94.1241 93.06 94.3667 92.8267 94.3667 92.36V81.832C94.3667 81.3653 94.1241 81.132 93.6387 81.132H92.2947C91.7907 81.132 91.5387 81.3653 91.5387 81.832ZM104.748 93.06H109.872V96H100.772V78.192H104.748V93.06Z" fill="black"/>
</svg>
