<svg width="4668" height="1334" viewBox="0 0 4668 1334" fill="none" xmlns="http://www.w3.org/2000/svg">
<g clip-path="url(#clip0_223_332)">
<path d="M4429.15 552L4288.21 841.65L4428.09 1129.46H4323.44L4187.84 841.65L4325.58 552H4429.15ZM4085.33 1129.46V552H4181.43V1129.46H4085.33Z" fill="#D9D9D9"/>
<path d="M3761.18 552H3879.7C3945.91 552 3979.01 579.059 3979.01 633.176V1048.28C3979.01 1102.4 3945.91 1129.46 3879.7 1129.46H3761.18C3694.27 1129.46 3660.81 1102.4 3660.81 1048.28V633.176C3660.81 579.059 3694.27 552 3761.18 552ZM3882.91 1035.37V646.09C3882.91 635.021 3880.77 627.949 3876.5 624.874C3872.23 621.184 3863.69 619.339 3850.87 619.339H3788.94C3776.13 619.339 3767.59 621.184 3763.32 624.874C3759.76 627.949 3757.98 635.021 3757.98 646.09V1035.37C3757.98 1046.43 3759.76 1053.81 3763.32 1057.5C3767.59 1060.58 3776.13 1062.12 3788.94 1062.12H3850.87C3863.69 1062.12 3872.23 1060.58 3876.5 1057.5C3880.77 1053.81 3882.91 1046.43 3882.91 1035.37Z" fill="#D9D9D9"/>
<path d="M3338.89 896.075V1129.46H3242.79V552H3461.69C3527.89 552 3560.99 579.059 3560.99 633.176V813.977C3560.99 860.714 3537.14 887.465 3489.45 894.23L3595.16 1129.46H3491.59L3391.21 896.075H3338.89ZM3338.89 619.339V829.658H3432.86C3445.67 829.658 3454.21 828.121 3458.48 825.046C3462.76 821.356 3464.89 813.977 3464.89 802.907V646.09C3464.89 635.021 3462.76 627.949 3458.48 624.874C3454.21 621.184 3445.67 619.339 3432.86 619.339H3338.89Z" fill="#D9D9D9"/>
<path d="M3077.54 1129.46L3050.85 995.7H2909.9L2885.34 1129.46H2789.24L2907.77 552H3047.64L3174.71 1129.46H3077.54ZM2921.65 928.361H3038.03L2977.17 623.951L2921.65 928.361Z" fill="#D9D9D9"/>
<path d="M2771.55 552V619.339H2659.43V1129.46H2563.33V619.339H2451.22V552H2771.55Z" fill="#D9D9D9"/>
<path d="M2336.15 1129.46L2309.46 995.7H2168.51L2143.95 1129.46H2047.85L2166.37 552H2306.25L2433.32 1129.46H2336.15ZM2180.26 928.361H2296.64L2235.78 623.951L2180.26 928.361Z" fill="#D9D9D9"/>
<path d="M1652.66 552H1885.43C1951.64 552 1984.74 579.059 1984.74 633.176V1048.28C1984.74 1102.4 1951.64 1129.46 1885.43 1129.46H1652.66V552ZM1887.57 1037.21V644.245C1887.57 633.176 1885.43 626.104 1881.16 623.029C1876.89 619.339 1868.35 617.494 1855.54 617.494H1749.83V1063.96H1855.54C1868.35 1063.96 1876.89 1062.42 1881.16 1059.35C1885.43 1055.66 1887.57 1048.28 1887.57 1037.21Z" fill="#D9D9D9"/>
</g>
<line x1="1651" y1="1239.5" x2="4434" y2="1239.5" stroke="#3C8CD3" stroke-width="25"/>
<path d="M531.02 256.856L729.69 660.387L632.99 860.601L532.395 660.387L237.102 1250.85H49L531.02 256.856Z" fill="#3D8BD2"/>
<path d="M997.969 93L1257.97 623.738L1161.92 825.988L999.023 494.107L631.043 1248.81H437.477L997.969 93Z" fill="#3D8BD2"/>
<path d="M997.969 868.388L1150.89 1188.41L1339.75 782.552L1562.35 1252.21L1185.65 1255.42H985.394H810.283L997.969 868.388Z" fill="#3D8BD2"/>
<defs>
<clipPath id="clip0_223_332">
<rect width="4668" height="1334" fill="white"/>
</clipPath>
</defs>
</svg>
