<svg width="4668" height="1334" viewBox="0 0 4668 1334" fill="none" xmlns="http://www.w3.org/2000/svg">
<g clip-path="url(#clip0_223_332)">
<path d="M4429.15 552.001L4288.21 841.652L4428.09 1129.46H4323.44L4187.84 841.652L4325.58 552.001H4429.15ZM4085.33 1129.46V552.001H4181.43V1129.46H4085.33Z" fill="#D9D9D9"/>
<path d="M3761.18 552.001H3879.7C3945.91 552.001 3979.01 579.06 3979.01 633.177V1048.28C3979.01 1102.4 3945.91 1129.46 3879.7 1129.46H3761.18C3694.27 1129.46 3660.81 1102.4 3660.81 1048.28V633.177C3660.81 579.06 3694.27 552.001 3761.18 552.001ZM3882.91 1035.37V646.092C3882.91 635.022 3880.77 627.95 3876.5 624.875C3872.23 621.185 3863.69 619.341 3850.87 619.341H3788.94C3776.13 619.341 3767.59 621.185 3763.32 624.875C3759.76 627.95 3757.98 635.022 3757.98 646.092V1035.37C3757.98 1046.44 3759.76 1053.82 3763.32 1057.51C3767.59 1060.58 3776.13 1062.12 3788.94 1062.12H3850.87C3863.69 1062.12 3872.23 1060.58 3876.5 1057.51C3880.77 1053.82 3882.91 1046.44 3882.91 1035.37Z" fill="#D9D9D9"/>
<path d="M3338.89 896.076V1129.46H3242.79V552.001H3461.69C3527.89 552.001 3560.99 579.06 3560.99 633.177V813.978C3560.99 860.716 3537.14 887.467 3489.45 894.231L3595.16 1129.46H3491.59L3391.21 896.076H3338.89ZM3338.89 619.341V829.66H3432.86C3445.67 829.66 3454.21 828.122 3458.48 825.047C3462.76 821.358 3464.89 813.978 3464.89 802.909V646.092C3464.89 635.022 3462.76 627.95 3458.48 624.875C3454.21 621.185 3445.67 619.341 3432.86 619.341H3338.89Z" fill="#D9D9D9"/>
<path d="M3077.54 1129.46L3050.85 995.701H2909.9L2885.34 1129.46H2789.24L2907.77 552.001H3047.64L3174.71 1129.46H3077.54ZM2921.65 928.362H3038.03L2977.17 623.953L2921.65 928.362Z" fill="#D9D9D9"/>
<path d="M2771.55 552.001V619.341H2659.43V1129.46H2563.33V619.341H2451.22V552.001H2771.55Z" fill="#D9D9D9"/>
<path d="M2336.15 1129.46L2309.46 995.701H2168.51L2143.95 1129.46H2047.85L2166.37 552.001H2306.25L2433.32 1129.46H2336.15ZM2180.26 928.362H2296.64L2235.78 623.953L2180.26 928.362Z" fill="#D9D9D9"/>
<path d="M1652.66 552.001H1885.43C1951.64 552.001 1984.74 579.06 1984.74 633.177V1048.28C1984.74 1102.4 1951.64 1129.46 1885.43 1129.46H1652.66V552.001ZM1887.57 1037.21V644.247C1887.57 633.177 1885.43 626.105 1881.16 623.03C1876.89 619.341 1868.35 617.496 1855.54 617.496H1749.83V1063.96H1855.54C1868.35 1063.96 1876.89 1062.43 1881.16 1059.35C1885.43 1055.66 1887.57 1048.28 1887.57 1037.21Z" fill="#D9D9D9"/>
<path d="M4429.15 552.001L4288.21 841.652L4428.09 1129.46H4323.44L4187.84 841.652L4325.58 552.001H4429.15ZM4085.33 1129.46V552.001H4181.43V1129.46H4085.33Z" fill="#D9D9D9"/>
<path d="M3761.18 552.001H3879.7C3945.91 552.001 3979.01 579.06 3979.01 633.177V1048.28C3979.01 1102.4 3945.91 1129.46 3879.7 1129.46H3761.18C3694.27 1129.46 3660.81 1102.4 3660.81 1048.28V633.177C3660.81 579.06 3694.27 552.001 3761.18 552.001ZM3882.91 1035.37V646.092C3882.91 635.022 3880.77 627.95 3876.5 624.875C3872.23 621.185 3863.69 619.341 3850.87 619.341H3788.94C3776.13 619.341 3767.59 621.185 3763.32 624.875C3759.76 627.95 3757.98 635.022 3757.98 646.092V1035.37C3757.98 1046.44 3759.76 1053.82 3763.32 1057.51C3767.59 1060.58 3776.13 1062.12 3788.94 1062.12H3850.87C3863.69 1062.12 3872.23 1060.58 3876.5 1057.51C3880.77 1053.82 3882.91 1046.44 3882.91 1035.37Z" fill="#D9D9D9"/>
<path d="M3338.89 896.076V1129.46H3242.79V552.001H3461.69C3527.89 552.001 3560.99 579.06 3560.99 633.177V813.978C3560.99 860.716 3537.14 887.467 3489.45 894.231L3595.16 1129.46H3491.59L3391.21 896.076H3338.89ZM3338.89 619.341V829.66H3432.86C3445.67 829.66 3454.21 828.122 3458.48 825.047C3462.76 821.358 3464.89 813.978 3464.89 802.909V646.092C3464.89 635.022 3462.76 627.95 3458.48 624.875C3454.21 621.185 3445.67 619.341 3432.86 619.341H3338.89Z" fill="#D9D9D9"/>
<path d="M3077.54 1129.46L3050.85 995.701H2909.9L2885.34 1129.46H2789.24L2907.77 552.001H3047.64L3174.71 1129.46H3077.54ZM2921.65 928.362H3038.03L2977.17 623.953L2921.65 928.362Z" fill="#D9D9D9"/>
<path d="M2771.55 552.001V619.341H2659.43V1129.46H2563.33V619.341H2451.22V552.001H2771.55Z" fill="#D9D9D9"/>
<path d="M2336.15 1129.46L2309.46 995.701H2168.51L2143.95 1129.46H2047.85L2166.37 552.001H2306.25L2433.32 1129.46H2336.15ZM2180.26 928.362H2296.64L2235.78 623.953L2180.26 928.362Z" fill="#D9D9D9"/>
<path d="M1652.66 552.001H1885.43C1951.64 552.001 1984.74 579.06 1984.74 633.177V1048.28C1984.74 1102.4 1951.64 1129.46 1885.43 1129.46H1652.66V552.001ZM1887.57 1037.21V644.247C1887.57 633.177 1885.43 626.105 1881.16 623.03C1876.89 619.341 1868.35 617.496 1855.54 617.496H1749.83V1063.96H1855.54C1868.35 1063.96 1876.89 1062.43 1881.16 1059.35C1885.43 1055.66 1887.57 1048.28 1887.57 1037.21Z" fill="#D9D9D9"/>
</g>
<line x1="1651" y1="1239.5" x2="4434" y2="1239.5" stroke="#3C8CD3" stroke-width="25"/>
<path d="M531.02 256.857L729.69 660.389L632.99 860.603L532.395 660.389L237.102 1250.85H49L531.02 256.857Z" fill="#3D8BD2"/>
<path d="M997.969 93.0015L1257.97 623.739L1161.92 825.989L999.023 494.109L631.043 1248.81H437.477L997.969 93.0015Z" fill="#3D8BD2"/>
<path d="M997.969 868.389L1150.89 1188.41L1339.75 782.553L1562.35 1252.21L1185.65 1255.42H985.394H810.283L997.969 868.389Z" fill="#3D8BD2"/>
<defs>
<clipPath id="clip0_223_332">
<rect width="4668" height="1334" fill="white" transform="translate(0 0.00146484)"/>
</clipPath>
</defs>
</svg>
